<?xml version="1.0" encoding="UTF-8"?><svg id="Layer_1" xmlns="http://www.w3.org/2000/svg" viewBox="0 0 245.095 277.764"><defs><style>.cls-1{fill:#019c9f;}.cls-1,.cls-2{stroke-width:0px;}.cls-2{fill:#01486d;}</style></defs><path class="cls-1" d="M178.119,170.693l-56.024-32.346V5.007c0-3.849,4.167-6.255,7.5-4.33l44,25.403c3.094,1.786,5,5.088,5,8.66v135.677s-.476.275-.476.275Z"/><path class="cls-1" d="M244.619,208.817l-56.024-32.346V43.131c0-3.849,4.167-6.255,7.5-4.33l44,25.403c3.094,1.786,5,5.088,5,8.66v135.677s-.476.275-.476.275Z"/><path class="cls-2" d="M188.812,176.274l55.717,32.168-42.632,24.614c-3.094,1.786-6.906,1.786-10,0l-43.217-24.952c-3.333-1.925-3.333-6.736,0-8.66l40.132-23.17Z"/><path class="cls-2" d="M126.18,195.114l-43.576-25.159c-3.333-1.925-3.333-6.736,0-8.66l40.132-23.17,56.076,32.376-42.632,24.613c-3.094,1.786-6.906,1.786-10,0Z"/><path class="cls-2" d="M107.169,70.911l-50.549,29.018v70.208c0,3.581,1.915,6.889,5.021,8.672l110.456,63.423c3.341,1.918,3.349,6.735.014,8.664l-44.122,25.525c-3.088,1.786-6.893,1.792-9.987.016L5.021,211.564c-3.106-1.783-5.021-5.091-5.021-8.672V66.916L104.701,6.811c3.333-1.914,7.489.493,7.489,4.336v51.091c0,3.581-1.915,6.89-5.021,8.673Z"/></svg>