<?xml version="1.0" encoding="UTF-8"?><svg id="Layer_1" xmlns="http://www.w3.org/2000/svg" viewBox="0 0 733.01 277.764"><defs><style>.cls-1{fill:#019c9f;}.cls-1,.cls-2,.cls-3{stroke-width:0px;}.cls-2{fill:#01486d;}.cls-3{fill:#343434;}</style></defs><path class="cls-1" d="M178.119,170.693l-56.024-32.346V5.007c0-3.849,4.167-6.255,7.5-4.33l44,25.403c3.094,1.786,5,5.088,5,8.66v135.677s-.476.275-.476.275Z"/><path class="cls-1" d="M244.619,208.817l-56.024-32.346V43.131c0-3.849,4.167-6.255,7.5-4.33l44,25.403c3.094,1.786,5,5.088,5,8.66v135.677s-.476.275-.476.275Z"/><path class="cls-2" d="M188.812,176.274l55.717,32.168-42.632,24.614c-3.094,1.786-6.906,1.786-10,0l-43.217-24.952c-3.333-1.925-3.333-6.736,0-8.66l40.132-23.17Z"/><path class="cls-2" d="M126.18,195.114l-43.576-25.159c-3.333-1.925-3.333-6.736,0-8.66l40.132-23.17,56.076,32.376-42.632,24.613c-3.094,1.786-6.906,1.786-10,0Z"/><path class="cls-2" d="M107.169,70.911l-50.549,29.018v70.208c0,3.581,1.915,6.889,5.021,8.672l110.456,63.423c3.341,1.918,3.349,6.735.014,8.664l-44.122,25.525c-3.088,1.786-6.893,1.792-9.987.016L5.021,211.564c-3.106-1.783-5.021-5.091-5.021-8.672V66.916L104.701,6.811c3.333-1.914,7.489.493,7.489,4.336v51.091c0,3.581-1.915,6.89-5.021,8.673Z"/><polygon class="cls-3" points="534.385 61.257 469.385 173.84 599.385 173.84 534.385 61.257"/><polygon class="cls-3" points="571.385 114.312 599.385 81.312 653.375 174.312 606.246 174.312 571.385 114.312"/><path class="cls-3" d="M292.788,173.464V63.308h38.77c5.231,0,10.128.846,14.693,2.538,4.562,1.692,8.538,4.077,11.923,7.154,3.385,3.077,6.051,6.745,8,11,1.947,4.257,2.924,8.95,2.924,14.078,0,5.23-.977,9.976-2.924,14.23-1.949,4.258-4.615,7.924-8,11-3.385,3.077-7.36,5.462-11.923,7.154-4.565,1.692-9.462,2.539-14.693,2.539h-18v40.462h-20.77ZM331.866,113.308c5.435,0,9.538-1.538,12.308-4.615s4.153-6.615,4.153-10.615c0-1.947-.334-3.847-1-5.692-.668-1.847-1.692-3.462-3.076-4.847-1.385-1.385-3.104-2.485-5.154-3.308-2.053-.82-4.462-1.231-7.23-1.231h-18.309v30.308h18.309Z"/><path class="cls-3" d="M375.865,98.078h18.924v10.461h1.23c.924-1.846,2.154-3.538,3.692-5.076s3.255-2.878,5.154-4.022c1.896-1.142,3.947-2.064,6.154-2.769,2.204-.702,4.384-1.056,6.538-1.056,2.666,0,4.947.286,6.847.855,1.896.57,3.512,1.311,4.846,2.222l-5.385,18c-1.23-.615-2.591-1.101-4.077-1.461-1.487-.358-3.308-.539-5.461-.539-2.77,0-5.284.543-7.539,1.625-2.257,1.082-4.181,2.604-5.77,4.562-1.591,1.959-2.822,4.253-3.692,6.883-.872,2.63-1.308,5.49-1.308,8.582v37.118h-20.154v-75.386Z"/><path class="cls-3" d="M444.175,87.924c-1.745,0-3.411-.332-5-1-1.592-.666-2.977-1.589-4.154-2.77-1.181-1.178-2.104-2.539-2.77-4.077-.668-1.539-1-3.231-1-5.077s.332-3.539,1-5.077c.666-1.539,1.589-2.896,2.77-4.077s2.562-2.101,4.154-2.769c1.589-.666,3.255-1,5-1,3.589,0,6.666,1.257,9.23,3.769,2.562,2.515,3.847,5.565,3.847,9.154s-1.284,6.642-3.847,9.154c-2.564,2.515-5.642,3.77-9.23,3.77ZM434.175,173.464v-75.386h20.154v75.386h-20.154Z"/><path class="cls-3" d="M731.779,155.309c-3.488,6.154-8.181,11.13-14.077,14.924-5.899,3.793-13.104,5.692-21.616,5.692-5.745,0-11.053-1-15.924-3-4.872-2-9.104-4.794-12.692-8.385-3.591-3.59-6.385-7.82-8.385-12.693-2-4.87-3-10.23-3-16.077,0-5.435.974-10.589,2.923-15.462,1.947-4.87,4.666-9.127,8.154-12.77,3.485-3.639,7.615-6.538,12.385-8.692,4.77-2.153,10.024-3.23,15.77-3.23,6.051,0,11.436,1,16.154,3,4.717,2,8.666,4.77,11.847,8.308,3.178,3.539,5.589,7.719,7.23,12.539,1.64,4.822,2.462,10.053,2.462,15.692v1.847c-.104.615-.154,1.18-.154,1.692-.103.514-.153,1.076-.153,1.692h-56.771c.408,3.076,1.255,5.719,2.538,7.923,1.281,2.207,2.871,4.053,4.77,5.538,1.896,1.488,3.974,2.565,6.231,3.231,2.255.668,4.562,1,6.923,1,4.615,0,8.436-1.051,11.462-3.154,3.024-2.101,5.408-4.742,7.154-7.923l16.77,8.308ZM713.471,126.078c-.104-1.331-.538-2.819-1.308-4.461-.77-1.64-1.899-3.179-3.385-4.616-1.488-1.435-3.334-2.615-5.538-3.538-2.207-.923-4.847-1.385-7.924-1.385-4.308,0-8.104,1.23-11.385,3.692-3.283,2.462-5.591,5.899-6.923,10.308h36.462Z"/><path class="cls-3" d="M321.106,207.068h-17.165v-2.435h17.165v2.435Z"/><path class="cls-3" d="M343.379,208.663c0,2.007-.737,3.619-2.21,4.837-1.495,1.196-3.311,1.794-5.446,1.794-1.901,0-3.577-.556-5.029-1.666-1.453-1.11-2.456-2.627-3.011-4.549l2.819-1.153c.192.684.459,1.303.801,1.858.341.555.741,1.03,1.2,1.425s.966.704,1.521.929c.556.224,1.143.336,1.762.336,1.346,0,2.445-.347,3.3-1.041.854-.694,1.281-1.617,1.281-2.77,0-.961-.352-1.783-1.057-2.467-.662-.662-1.901-1.302-3.716-1.922-1.837-.662-2.979-1.11-3.428-1.345-2.434-1.239-3.651-3.065-3.651-5.478,0-1.687.672-3.128,2.018-4.325,1.366-1.195,3.043-1.794,5.029-1.794,1.751,0,3.267.449,4.549,1.346,1.281.876,2.135,1.975,2.562,3.299l-2.754,1.154c-.257-.854-.764-1.564-1.521-2.13-.759-.566-1.682-.849-2.771-.849-1.153,0-2.125.321-2.915.961-.79.599-1.185,1.378-1.185,2.339,0,.79.309,1.473.929,2.05.683.577,2.167,1.26,4.452,2.05,2.328.79,3.988,1.757,4.981,2.899s1.489,2.546,1.489,4.212Z"/><path class="cls-3" d="M368.235,203.313c0,3.396-1.132,6.236-3.396,8.52-2.285,2.306-5.082,3.46-8.391,3.46-3.332,0-6.129-1.154-8.392-3.46-2.264-2.285-3.396-5.125-3.396-8.52s1.132-6.236,3.396-8.52c2.263-2.306,5.061-3.46,8.392-3.46s6.128,1.165,8.391,3.492c2.264,2.286,3.396,5.115,3.396,8.488ZM347.67,203.313c0,2.648.833,4.837,2.499,6.567,1.687,1.73,3.78,2.595,6.279,2.595s4.58-.865,6.246-2.595c1.687-1.708,2.531-3.897,2.531-6.567s-.844-4.858-2.531-6.567c-1.666-1.73-3.748-2.595-6.246-2.595s-4.592.865-6.279,2.595c-1.666,1.73-2.499,3.919-2.499,6.567Z"/><path class="cls-3" d="M373.519,204.947v9.833h-2.947v-22.934h13.389v2.819h-10.442v7.527h9.417v2.755h-9.417Z"/><path class="cls-3" d="M393.956,194.665v20.116h-2.947v-20.116h-6.407v-2.819h15.759v2.819h-6.406Z"/><path class="cls-3" d="M425.922,191.846h3.075l-6.118,22.934h-3.011l-4.933-15.119h-.128l-4.934,15.119h-3.011l-6.374-22.934h3.075l4.837,18.034h.128l4.965-14.959h2.755l4.965,14.959h.128l4.581-18.034Z"/><path class="cls-3" d="M430.567,214.78h-3.268l8.648-22.934h3.332l8.648,22.934h-3.267l-2.211-6.215h-9.641l-2.242,6.215ZM437.55,195.466l-3.748,10.346h7.623l-3.748-10.346h-.128Z"/><path class="cls-3" d="M452.412,214.78h-2.947v-22.934h7.816c1.986,0,3.677.656,5.076,1.97,1.399,1.313,2.098,2.93,2.098,4.852,0,1.581-.517,2.984-1.553,4.212s-2.343,2.013-3.924,2.354l-.064.096,6.439,9.321v.128h-3.492l-6.182-9.289h-3.268v9.289ZM452.412,194.665v8.071h4.741c1.196,0,2.211-.389,3.044-1.168s1.249-1.746,1.249-2.899c0-1.067-.389-2.001-1.169-2.802s-1.756-1.201-2.93-1.201h-4.934Z"/><path class="cls-3" d="M480.215,191.846v2.819h-10.442v7.271h9.417v2.754h-9.417v7.271h10.442v2.819h-13.389v-22.934h13.389Z"/><path class="cls-3" d="M497.191,208.663c0,2.007-.737,3.619-2.21,4.837-1.495,1.196-3.311,1.794-5.446,1.794-1.901,0-3.577-.556-5.029-1.666-1.453-1.11-2.456-2.627-3.011-4.549l2.819-1.153c.192.684.459,1.303.801,1.858.341.555.741,1.03,1.2,1.425s.966.704,1.521.929c.556.224,1.143.336,1.762.336,1.346,0,2.445-.347,3.3-1.041.854-.694,1.281-1.617,1.281-2.77,0-.961-.352-1.783-1.057-2.467-.662-.662-1.901-1.302-3.716-1.922-1.837-.662-2.979-1.11-3.428-1.345-2.434-1.239-3.651-3.065-3.651-5.478,0-1.687.672-3.128,2.018-4.325,1.366-1.195,3.043-1.794,5.029-1.794,1.751,0,3.267.449,4.549,1.346,1.281.876,2.135,1.975,2.562,3.299l-2.754,1.154c-.257-.854-.764-1.564-1.521-2.13-.759-.566-1.682-.849-2.771-.849-1.153,0-2.125.321-2.915.961-.79.599-1.185,1.378-1.185,2.339,0,.79.309,1.473.929,2.05.683.577,2.167,1.26,4.452,2.05,2.328.79,3.988,1.757,4.981,2.899s1.489,2.546,1.489,4.212Z"/><path class="cls-3" d="M514.327,214.78h-2.947v-22.934h2.947v22.934Z"/><path class="cls-3" d="M520.732,214.78h-2.947v-22.934h3.588l11.147,17.842h.128l-.128-4.421v-13.421h2.947v22.934h-3.075l-11.66-18.707h-.128l.128,4.421v14.286Z"/><path class="cls-3" d="M541.873,214.78h-2.947v-22.934h3.588l11.147,17.842h.128l-.128-4.421v-13.421h2.947v22.934h-3.075l-11.66-18.707h-.128l.128,4.421v14.286Z"/><path class="cls-3" d="M582.201,203.313c0,3.396-1.132,6.236-3.396,8.52-2.285,2.306-5.082,3.46-8.391,3.46-3.332,0-6.129-1.154-8.392-3.46-2.264-2.285-3.396-5.125-3.396-8.52s1.132-6.236,3.396-8.52c2.263-2.306,5.061-3.46,8.392-3.46s6.128,1.165,8.391,3.492c2.264,2.286,3.396,5.115,3.396,8.488ZM561.636,203.313c0,2.648.833,4.837,2.499,6.567,1.687,1.73,3.78,2.595,6.279,2.595s4.58-.865,6.246-2.595c1.687-1.708,2.531-3.897,2.531-6.567s-.844-4.858-2.531-6.567c-1.666-1.73-3.748-2.595-6.246-2.595s-4.592.865-6.279,2.595c-1.666,1.73-2.499,3.919-2.499,6.567Z"/><path class="cls-3" d="M592.803,214.78h-3.075l-8.072-22.934h3.268l6.278,18.61h.129l6.534-18.61h3.268l-8.328,22.934Z"/><path class="cls-3" d="M601.772,214.78h-3.268l8.648-22.934h3.332l8.648,22.934h-3.267l-2.211-6.215h-9.641l-2.242,6.215ZM608.755,195.466l-3.748,10.346h7.623l-3.748-10.346h-.128Z"/><path class="cls-3" d="M626.404,194.665v20.116h-2.947v-20.116h-6.407v-2.819h15.759v2.819h-6.406Z"/><path class="cls-3" d="M637.679,214.78h-2.947v-22.934h2.947v22.934Z"/><path class="cls-3" d="M663.272,203.313c0,3.396-1.132,6.236-3.396,8.52-2.285,2.306-5.082,3.46-8.391,3.46-3.332,0-6.129-1.154-8.392-3.46-2.264-2.285-3.396-5.125-3.396-8.52s1.132-6.236,3.396-8.52c2.263-2.306,5.061-3.46,8.392-3.46s6.128,1.165,8.391,3.492c2.264,2.286,3.396,5.115,3.396,8.488ZM642.707,203.313c0,2.648.833,4.837,2.499,6.567,1.687,1.73,3.78,2.595,6.279,2.595s4.58-.865,6.246-2.595c1.687-1.708,2.531-3.897,2.531-6.567s-.844-4.858-2.531-6.567c-1.666-1.73-3.748-2.595-6.246-2.595s-4.592.865-6.279,2.595c-1.666,1.73-2.499,3.919-2.499,6.567Z"/><path class="cls-3" d="M668.556,214.78h-2.947v-22.934h3.588l11.147,17.842h.128l-.128-4.421v-13.421h2.947v22.934h-3.075l-11.66-18.707h-.128l.128,4.421v14.286Z"/><path class="cls-3" d="M700.908,208.663c0,2.007-.737,3.619-2.21,4.837-1.495,1.196-3.311,1.794-5.446,1.794-1.901,0-3.577-.556-5.029-1.666-1.453-1.11-2.456-2.627-3.011-4.549l2.819-1.153c.192.684.459,1.303.801,1.858.341.555.741,1.03,1.2,1.425s.966.704,1.521.929c.556.224,1.143.336,1.762.336,1.346,0,2.445-.347,3.3-1.041.854-.694,1.281-1.617,1.281-2.77,0-.961-.352-1.783-1.057-2.467-.662-.662-1.901-1.302-3.716-1.922-1.837-.662-2.979-1.11-3.428-1.345-2.434-1.239-3.651-3.065-3.651-5.478,0-1.687.672-3.128,2.018-4.325,1.366-1.195,3.043-1.794,5.029-1.794,1.751,0,3.267.449,4.549,1.346,1.281.876,2.135,1.975,2.562,3.299l-2.754,1.154c-.257-.854-.764-1.564-1.521-2.13-.759-.566-1.682-.849-2.771-.849-1.153,0-2.125.321-2.915.961-.79.599-1.185,1.378-1.185,2.339,0,.79.309,1.473.929,2.05.683.577,2.167,1.26,4.452,2.05,2.328.79,3.988,1.757,4.981,2.899s1.489,2.546,1.489,4.212Z"/><path class="cls-3" d="M725.942,207.068h-16.25v-2.435h16.25v2.435Z"/></svg>